<?xml version="1.0" encoding="UTF-8" standalone="no"?>
<!DOCTYPE svg PUBLIC "-//W3C//DTD SVG 1.1//EN"
 "http://www.w3.org/Graphics/SVG/1.1/DTD/svg11.dtd">
<!-- Generated by graphviz version 2.44.1 (20200629.0846)
 -->
<!-- Title: dependencies Pages: 1 -->
<svg width="942pt" height="355pt"
 viewBox="0.00 0.00 942.00 355.00" xmlns="http://www.w3.org/2000/svg" xmlns:xlink="http://www.w3.org/1999/xlink">
<g id="graph0" class="graph" transform="scale(1 1) rotate(0) translate(4 351)">
<title>dependencies</title>
<polygon fill="white" stroke="transparent" points="-4,4 -4,-351 938,-351 938,4 -4,4"/>
<text text-anchor="start" x="446.01" y="-42.4" font-family="sans-serif" font-weight="bold" font-size="14.00">Legend</text>
<polygon fill="#ffffb3" stroke="transparent" points="233,-10 233,-30 253,-30 253,-10 233,-10"/>
<text text-anchor="start" x="256.63" y="-15.4" font-family="sans-serif" font-size="14.00"> &#160;Declarations</text>
<polygon fill="#8dd3c7" stroke="transparent" points="346,-10 346,-30 366,-30 366,-10 346,-10"/>
<text text-anchor="start" x="369.73" y="-15.4" font-family="sans-serif" font-size="14.00"> &#160;Module</text>
<polygon fill="#80b1d3" stroke="transparent" points="432,-10 432,-30 452,-30 452,-10 432,-10"/>
<text text-anchor="start" x="455.78" y="-15.4" font-family="sans-serif" font-size="14.00"> &#160;Bootstrap</text>
<polygon fill="#fdb462" stroke="transparent" points="529,-10 529,-30 549,-30 549,-10 529,-10"/>
<text text-anchor="start" x="552.67" y="-15.4" font-family="sans-serif" font-size="14.00"> &#160;Providers</text>
<polygon fill="#fb8072" stroke="transparent" points="625,-10 625,-30 645,-30 645,-10 625,-10"/>
<text text-anchor="start" x="648.73" y="-15.4" font-family="sans-serif" font-size="14.00"> &#160;Exports</text>
<g id="clust1" class="cluster">
<title>cluster_AppModule</title>
<polygon fill="none" stroke="black" stroke-dasharray="1,5" points="159,-146 159,-339 538,-339 538,-146 159,-146"/>
</g>
<g id="clust3" class="cluster">
<title>cluster_AppModule_imports</title>
<polygon fill="none" stroke="black" points="305,-154 305,-274 530,-274 530,-154 305,-154"/>
</g>
<g id="clust6" class="cluster">
<title>cluster_AppModule_providers</title>
<polygon fill="none" stroke="black" points="167,-222 167,-274 297,-274 297,-222 167,-222"/>
</g>
<g id="clust7" class="cluster">
<title>cluster_AuthModule</title>
<polygon fill="none" stroke="black" stroke-dasharray="1,5" points="8,-70 8,-138 542,-138 542,-70 8,-70"/>
</g>
<g id="clust10" class="cluster">
<title>cluster_AuthModule_exports</title>
<polygon fill="none" stroke="black" points="432,-78 432,-130 534,-130 534,-78 432,-78"/>
</g>
<g id="clust12" class="cluster">
<title>cluster_AuthModule_providers</title>
<polygon fill="none" stroke="black" points="16,-78 16,-130 424,-130 424,-78 16,-78"/>
</g>
<g id="clust13" class="cluster">
<title>cluster_MyLibraryModule</title>
<polygon fill="none" stroke="black" stroke-dasharray="1,5" points="730,-70 730,-282 926,-282 926,-70 730,-70"/>
</g>
<g id="clust16" class="cluster">
<title>cluster_MyLibraryModule_exports</title>
<polygon fill="none" stroke="black" points="759,-222 759,-274 897,-274 897,-222 759,-222"/>
</g>
<g id="clust18" class="cluster">
<title>cluster_MyLibraryModule_providers</title>
<polygon fill="none" stroke="black" points="738,-78 738,-130 918,-130 918,-78 738,-78"/>
</g>
<g id="clust19" class="cluster">
<title>cluster_MyTestModule</title>
<polygon fill="none" stroke="black" stroke-dasharray="1,5" points="550,-70 550,-138 722,-138 722,-70 550,-70"/>
</g>
<g id="clust24" class="cluster">
<title>cluster_MyTestModule_providers</title>
<polygon fill="none" stroke="black" points="558,-78 558,-130 714,-130 714,-78 558,-78"/>
</g>
<g id="clust25" class="cluster">
<title>cluster_TasksModule</title>
<polygon fill="none" stroke="black" stroke-dasharray="1,5" points="546,-146 546,-214 704,-214 704,-146 546,-146"/>
</g>
<g id="clust30" class="cluster">
<title>cluster_TasksModule_providers</title>
<polygon fill="none" stroke="black" points="554,-154 554,-206 696,-206 696,-154 554,-154"/>
</g>
<!-- AppService -->
<g id="node1" class="node">
<title>AppService</title>
<ellipse fill="#fdb462" stroke="black" cx="232" cy="-248" rx="56.74" ry="18"/>
<text text-anchor="middle" x="232" y="-243.8" font-family="Times,serif" font-size="14.00">AppService</text>
</g>
<!-- AppModule -->
<g id="node2" class="node">
<title>AppModule</title>
<polygon fill="#8dd3c7" stroke="black" points="408.66,-331 405.66,-335 384.66,-335 381.66,-331 325.34,-331 325.34,-295 408.66,-295 408.66,-331"/>
<text text-anchor="middle" x="367" y="-308.8" font-family="Times,serif" font-size="14.00">AppModule</text>
</g>
<!-- AppService&#45;&gt;AppModule -->
<g id="edge1" class="edge">
<title>AppService&#45;&gt;AppModule</title>
<path fill="none" stroke="black" d="M288.66,-248C318.41,-248 348.75,-248 348.75,-248 348.75,-248 348.75,-284.89 348.75,-284.89"/>
<polygon fill="black" stroke="black" points="345.25,-284.89 348.75,-294.89 352.25,-284.89 345.25,-284.89"/>
</g>
<!-- AuthModule -->
<g id="node3" class="node">
<title>AuthModule</title>
<polygon fill="#8dd3c7" stroke="black" points="400.55,-198 397.55,-202 376.55,-202 373.55,-198 313.45,-198 313.45,-162 400.55,-162 400.55,-198"/>
<text text-anchor="middle" x="357" y="-175.8" font-family="Times,serif" font-size="14.00">AuthModule</text>
</g>
<!-- AuthModule&#45;&gt;AppModule -->
<g id="edge2" class="edge">
<title>AuthModule&#45;&gt;AppModule</title>
<path fill="none" stroke="black" d="M372.32,-198.21C372.32,-198.21 372.32,-284.58 372.32,-284.58"/>
<polygon fill="black" stroke="black" points="368.82,-284.58 372.32,-294.58 375.82,-284.58 368.82,-284.58"/>
</g>
<!-- TasksModule -->
<g id="node5" class="node">
<title>TasksModule</title>
<polygon fill="#8dd3c7" stroke="black" points="488.21,-266 485.21,-270 464.21,-270 461.21,-266 395.79,-266 395.79,-230 488.21,-230 488.21,-266"/>
<text text-anchor="middle" x="442" y="-243.8" font-family="Times,serif" font-size="14.00">TasksModule</text>
</g>
<!-- AuthModule&#45;&gt;TasksModule -->
<g id="edge12" class="edge">
<title>AuthModule&#45;&gt;TasksModule</title>
<path fill="none" stroke="black" d="M400.93,-180C405.52,-180 408.54,-180 408.54,-180 408.54,-180 408.54,-219.78 408.54,-219.78"/>
<polygon fill="black" stroke="black" points="405.04,-219.78 408.54,-229.78 412.04,-219.78 405.04,-219.78"/>
</g>
<!-- JwtStrategy  -->
<g id="node6" class="node">
<title>JwtStrategy </title>
<polygon fill="#fb8072" stroke="black" points="525.6,-122 440.4,-122 440.4,-86 525.6,-86 525.6,-122"/>
<text text-anchor="middle" x="483" y="-99.8" font-family="Times,serif" font-size="14.00">JwtStrategy </text>
</g>
<!-- AuthModule&#45;&gt;JwtStrategy  -->
<g id="edge5" class="edge">
<title>AuthModule&#45;&gt;JwtStrategy </title>
<path fill="none" stroke="black" stroke-dasharray="5,2" d="M371.59,-161.89C371.59,-152.1 371.59,-142 371.59,-142 371.59,-142 480.88,-142 480.88,-142 480.88,-142 480.88,-132.11 480.88,-132.11"/>
<polygon fill="black" stroke="black" points="484.38,-132.11 480.88,-122.11 477.38,-132.11 484.38,-132.11"/>
</g>
<!-- MyTestModule -->
<g id="node4" class="node">
<title>MyTestModule</title>
<polygon fill="#8dd3c7" stroke="black" points="521.6,-198 518.6,-202 497.6,-202 494.6,-198 418.4,-198 418.4,-162 521.6,-162 521.6,-198"/>
<text text-anchor="middle" x="470" y="-175.8" font-family="Times,serif" font-size="14.00">MyTestModule</text>
</g>
<!-- MyTestModule&#45;&gt;AppModule -->
<g id="edge3" class="edge">
<title>MyTestModule&#45;&gt;AppModule</title>
<path fill="none" stroke="black" d="M504.83,-198.21C504.83,-234.64 504.83,-313 504.83,-313 504.83,-313 418.73,-313 418.73,-313"/>
<polygon fill="black" stroke="black" points="418.73,-309.5 408.73,-313 418.73,-316.5 418.73,-309.5"/>
</g>
<!-- TasksModule&#45;&gt;AppModule -->
<g id="edge4" class="edge">
<title>TasksModule&#45;&gt;AppModule</title>
<path fill="none" stroke="black" d="M402.36,-266.11C402.36,-266.11 402.36,-284.99 402.36,-284.99"/>
<polygon fill="black" stroke="black" points="398.86,-284.99 402.36,-294.99 405.86,-284.99 398.86,-284.99"/>
</g>
<!-- AuthService -->
<g id="node7" class="node">
<title>AuthService</title>
<ellipse fill="#fdb462" stroke="black" cx="357" cy="-104" rx="59.11" ry="18"/>
<text text-anchor="middle" x="357" y="-99.8" font-family="Times,serif" font-size="14.00">AuthService</text>
</g>
<!-- AuthService&#45;&gt;AuthModule -->
<g id="edge6" class="edge">
<title>AuthService&#45;&gt;AuthModule</title>
<path fill="none" stroke="black" d="M342.41,-121.63C342.41,-121.63 342.41,-151.94 342.41,-151.94"/>
<polygon fill="black" stroke="black" points="338.91,-151.94 342.41,-161.94 345.91,-151.94 338.91,-151.94"/>
</g>
<!-- JwtStrategy -->
<g id="node8" class="node">
<title>JwtStrategy</title>
<ellipse fill="#fdb462" stroke="black" cx="223" cy="-104" rx="56.76" ry="18"/>
<text text-anchor="middle" x="223" y="-99.8" font-family="Times,serif" font-size="14.00">JwtStrategy</text>
</g>
<!-- JwtStrategy&#45;&gt;AuthModule -->
<g id="edge7" class="edge">
<title>JwtStrategy&#45;&gt;AuthModule</title>
<path fill="none" stroke="black" d="M227.5,-122.03C227.5,-142.77 227.5,-174 227.5,-174 227.5,-174 303.16,-174 303.16,-174"/>
<polygon fill="black" stroke="black" points="303.16,-177.5 313.16,-174 303.16,-170.5 303.16,-177.5"/>
</g>
<!-- UsersService -->
<g id="node9" class="node">
<title>UsersService</title>
<ellipse fill="#fdb462" stroke="black" cx="86" cy="-104" rx="61.95" ry="18"/>
<text text-anchor="middle" x="86" y="-99.8" font-family="Times,serif" font-size="14.00">UsersService</text>
</g>
<!-- UsersService&#45;&gt;AuthModule -->
<g id="edge8" class="edge">
<title>UsersService&#45;&gt;AuthModule</title>
<path fill="none" stroke="black" d="M86,-122.2C86,-146.36 86,-186 86,-186 86,-186 303.16,-186 303.16,-186"/>
<polygon fill="black" stroke="black" points="303.16,-189.5 313.16,-186 303.16,-182.5 303.16,-189.5"/>
</g>
<!-- MyLibraryService  -->
<g id="node10" class="node">
<title>MyLibraryService </title>
<polygon fill="#fb8072" stroke="black" points="889.4,-266 766.6,-266 766.6,-230 889.4,-230 889.4,-266"/>
<text text-anchor="middle" x="828" y="-243.8" font-family="Times,serif" font-size="14.00">MyLibraryService </text>
</g>
<!-- MyLibraryModule -->
<g id="node11" class="node">
<title>MyLibraryModule</title>
<polygon fill="#8dd3c7" stroke="black" points="888.47,-198 885.47,-202 864.47,-202 861.47,-198 767.53,-198 767.53,-162 888.47,-162 888.47,-198"/>
<text text-anchor="middle" x="828" y="-175.8" font-family="Times,serif" font-size="14.00">MyLibraryModule</text>
</g>
<!-- MyLibraryModule&#45;&gt;MyLibraryService  -->
<g id="edge9" class="edge">
<title>MyLibraryModule&#45;&gt;MyLibraryService </title>
<path fill="none" stroke="black" stroke-dasharray="5,2" d="M828,-198.22C828,-198.22 828,-219.73 828,-219.73"/>
<polygon fill="black" stroke="black" points="824.5,-219.73 828,-229.73 831.5,-219.73 824.5,-219.73"/>
</g>
<!-- MyLibraryService -->
<g id="node12" class="node">
<title>MyLibraryService</title>
<ellipse fill="#fdb462" stroke="black" cx="828" cy="-104" rx="82.22" ry="18"/>
<text text-anchor="middle" x="828" y="-99.8" font-family="Times,serif" font-size="14.00">MyLibraryService</text>
</g>
<!-- MyLibraryService&#45;&gt;MyLibraryModule -->
<g id="edge10" class="edge">
<title>MyLibraryService&#45;&gt;MyLibraryModule</title>
<path fill="none" stroke="black" d="M828,-122.01C828,-122.01 828,-151.85 828,-151.85"/>
<polygon fill="black" stroke="black" points="824.5,-151.85 828,-161.85 831.5,-151.85 824.5,-151.85"/>
</g>
<!-- MyTestService -->
<g id="node13" class="node">
<title>MyTestService</title>
<ellipse fill="#fdb462" stroke="black" cx="636" cy="-104" rx="70.06" ry="18"/>
<text text-anchor="middle" x="636" y="-99.8" font-family="Times,serif" font-size="14.00">MyTestService</text>
</g>
<!-- MyTestService&#45;&gt;MyTestModule -->
<g id="edge11" class="edge">
<title>MyTestService&#45;&gt;MyTestModule</title>
<path fill="none" stroke="black" d="M565.91,-104C553.34,-104 544.14,-104 544.14,-104 544.14,-104 544.14,-180 544.14,-180 544.14,-180 531.9,-180 531.9,-180"/>
<polygon fill="black" stroke="black" points="531.9,-176.5 521.9,-180 531.9,-183.5 531.9,-176.5"/>
</g>
<!-- TasksService -->
<g id="node14" class="node">
<title>TasksService</title>
<ellipse fill="#fdb462" stroke="black" cx="625" cy="-180" rx="62.54" ry="18"/>
<text text-anchor="middle" x="625" y="-175.8" font-family="Times,serif" font-size="14.00">TasksService</text>
</g>
<!-- TasksService&#45;&gt;TasksModule -->
<g id="edge13" class="edge">
<title>TasksService&#45;&gt;TasksModule</title>
<path fill="none" stroke="black" d="M625,-198.22C625,-218.37 625,-248 625,-248 625,-248 498.18,-248 498.18,-248"/>
<polygon fill="black" stroke="black" points="498.18,-244.5 488.18,-248 498.18,-251.5 498.18,-244.5"/>
</g>
</g>
</svg>
